<?xml version="1.0" encoding="UTF-8" standalone="no"?>
<svg
   id="Layer_1"
   width="512.03497"
   height="277.98901"
   data-name="Layer 1"
   version="1.1"
   xmlns="http://www.w3.org/2000/svg"
   xmlns:svg="http://www.w3.org/2000/svg">
  <defs
     id="defs4715">
    <style
       id="style4713">.cls-1{fill:#08579b}.cls-1,.cls-2,.cls-3{stroke-width:0}.cls-2{fill:#f07126}.cls-3{fill:#005298}</style>
  </defs>
  <path
     d="m 352.47035,277.98901 c -30.87189,0 -61.27905,-6.86372 -87.89942,-19.83125 -26.04893,-12.68493 -48.02225,-30.93998 -63.56494,-52.78074 l 19.31065,-13.53901 c 27.51839,38.66403 78.14047,62.67756 132.14744,62.67756 54.00694,0 104.62902,-24.01353 132.14742,-62.67756 l 19.31687,13.53901 c -15.54266,21.84076 -37.51599,40.09581 -63.56491,52.78074 -26.62667,12.96753 -57.02123,19.83125 -87.89938,19.83125 z"
     style="fill:#ff7117;fill-opacity:1;fill-rule:nonzero;stroke:none;stroke-width:6.27976"
     id="path1832" />
  <g
     id="g1654">
    <path
       d="m 221.32068,60.313776 h -26.59734 v 12.420903 c -0.24726,-0.174255 -0.52208,-0.334391 -0.79233,-0.50412 -4.07185,-2.690459 -8.5605,-5.032574 -13.53918,-6.957597 -22.86447,-8.804659 -44.77172,-5.527512 -64.00868,9.684684 -23.51481,18.590143 -30.472185,50.861714 -17.349859,76.762334 0.0777,0.17426 0.18322,0.3438 0.27036,0.5225 13.786469,26.62942 44.057139,40.53992 73.214869,33.02782 7.42455,-1.91584 14.42316,-5.46799 22.05378,-8.46095 v 8.34636 h 3.05045 c 0.40787,0.0377 0.83809,0.0551 1.35576,0.0283 0.32498,-0.0188 0.65042,-0.0188 0.97101,-0.0283 h 21.17439 V 138.3182 h 0.20628 V 60.309152 l -0.009,0.0099 z m -26.58815,72.110214 c -3.93441,17.08221 -19.32398,29.82401 -37.7136,29.82401 -10.42458,0 -19.8736,-4.10212 -26.83553,-10.74802 -7.3146,-6.98504 -11.86738,-16.78889 -11.86738,-27.6561 0,-21.20269 17.32241,-38.399471 38.70291,-38.399471 13.03989,0 24.55,6.425899 31.55778,16.234301 2.88554,4.02421 5.01532,8.62131 6.15582,13.58512 z"
       style="fill:#ff7117;fill-opacity:1;fill-rule:nonzero;stroke:none;stroke-width:4.58179"
       id="path1838" />
    <path
       d="m 512.01927,60.313776 h -26.59732 v 12.420903 c -0.24727,-0.174255 -0.52216,-0.334391 -0.79236,-0.50412 -4.07186,-2.690459 -8.56048,-5.032574 -13.53921,-6.957597 -22.86442,-8.804659 -44.77167,-5.527512 -64.00861,9.684684 -23.51487,18.590143 -30.46764,50.861714 -17.34989,76.762334 0.0871,0.17426 0.18322,0.3438 0.27037,0.5225 13.78648,26.62942 44.05718,40.53992 73.21028,33.02782 7.42916,-1.91584 14.42773,-5.46799 22.05837,-8.46095 v 8.34636 h 3.04585 c 0.40788,0.0377 0.83824,0.0551 1.35576,0.0283 0.32543,-0.0188 0.65044,-0.0188 0.97105,-0.0283 h 21.16981 V 138.3182 h 0.20628 V 60.309152 l -0.0146,0.0099 z m -26.59274,72.110214 c -3.92986,17.08221 -19.3194,29.82401 -37.70903,29.82401 -10.43372,0 -19.87814,-4.10212 -26.84009,-10.74802 -7.31002,-6.98504 -11.86736,-16.78889 -11.86736,-27.6561 0,-21.20269 17.32698,-38.399471 38.70288,-38.399471 13.04448,0 24.54998,6.425899 31.56231,16.234301 2.93137,4.07921 5.02449,8.69465 6.16503,13.58512 v 17.16016 z"
       style="fill:#ff7117;fill-opacity:1;fill-rule:nonzero;stroke:none;stroke-width:4.58179"
       id="path1844" />
    <path
       d="m 82.125885,60.471872 h -2.482518 c -0.224656,-0.02353 -0.45356,-0.02353 -0.705362,-0.02353 -1.080926,0.02353 -2.166412,0.01481 -3.247341,0.02353 H 63.26908 v 0.04706 c -35.982242,0.696753 -63.09259638,27.867 -63.23455378,63.754808 -0.077684,19.49309 0,38.98162 0,58.47471 v 3.75378 H 26.760123 v -4.31297 c 0,-20.09348 -0.05511,-40.18699 0.05042,-60.27595 0.08237,-16.90805 12.458183,-32.422748 29.157706,-35.489046 3.201582,-0.591263 6.467248,-0.815819 9.751291,-0.907521 H 82.121297 V 60.464006 h 0.01466 z"
       style="fill:#0056c7;fill-opacity:1;fill-rule:nonzero;stroke:none;stroke-width:4.58179"
       id="path1850" />
    <path
       d="m 367.28558,63.999721 c 0,-1.150456 -0.14232,-2.310044 -0.21996,-3.552136 h -26.40039 v 7.232586 c 0,0.802063 -0.0147,1.782922 -0.0236,2.956266 -0.0819,12.242173 -5.43217,22.999368 -13.89185,29.993613 -0.15118,0.11913 -0.28871,0.25197 -0.4305,0.37111 -5.70692,4.57422 -12.65968,7.31968 -19.95142,7.8697 -0.76957,0.0551 -1.55263,0.0824 -2.32674,0.11913 -0.7696,-0.0377 -1.55267,-0.0551 -2.3222,-0.11913 -19.48429,-1.50336 -34.13181,-17.852275 -34.27841,-38.225373 0,-1.187051 -0.0189,-2.16791 -0.0189,-2.96084 v -7.218798 h -26.40498 c -0.064,0.962496 -0.14217,1.865392 -0.18321,2.763731 -0.0147,0.261398 -0.0377,0.5225 -0.0377,0.779191 v 2.310045 c 0,1.044999 0.0188,2.520845 0.0236,4.592528 0.15495,30.346516 21.24767,55.257146 49.84202,61.504266 v 0.0918 c -0.0236,16.75224 0,33.49988 0.0147,50.25211 v 3.75379 h 26.72559 v -4.31754 c 0,-16.50013 -0.0189,-32.98655 0.0283,-49.4867 V 132.402 c 6.77877,-1.48503 13.27351,-4.06546 19.22317,-7.64507 0.39377,-0.23361 0.79238,-0.46297 1.18633,-0.71041 17.67049,-11.12846 29.31337,-30.639882 29.42334,-53.144246 0.009,-2.062501 0.0147,-3.538347 0.0236,-4.583363 v -2.314602 l -0.0147,-0.0099 z"
       style="fill:#0056c7;fill-opacity:1;fill-rule:nonzero;stroke:none;stroke-width:4.58179"
       id="path1856" />
  </g>
  <path
     d="m 472.87369,53.10727 h 9.17493 V 0 h -9.17493 z M 339.52052,0 v 53.119841 h 9.18119 v -2.888687 c 1.51352,1.080146 3.15877,1.959266 4.89201,2.618634 1.77731,0.684512 3.64235,1.029877 5.57657,1.029877 2.75685,0 5.35675,-0.521216 7.79959,-1.563631 2.44917,-1.036146 4.55918,-2.436498 6.34269,-4.207375 1.78979,-1.770861 3.20275,-3.855741 4.24516,-6.260877 1.0487,-2.411388 1.56995,-4.96093 1.56995,-7.705162 0,-2.73793 -0.52125,-5.300043 -1.56995,-7.705179 -1.04241,-2.398818 -2.45537,-4.483681 -4.24516,-6.254558 -1.7773,-1.770828 -3.89984,-3.171229 -6.34269,-4.213628 -2.44284,-1.029894 -5.04274,-1.557379 -7.79959,-1.557379 -1.93422,0 -3.78677,0.345218 -5.57657,1.029877 -1.78346,0.684479 -3.41622,1.544807 -4.89201,2.612316 V 0 Z m 109.71573,14.411876 c -1.94048,0 -3.81813,0.345218 -5.65815,1.029877 -1.83371,0.684479 -3.48535,1.544807 -4.96739,2.612316 v -2.888638 h -0.004 -9.16859 v 37.948108 h 9.17487 V 28.151796 c 0.25714,-0.452139 0.66575,-0.960784 1.23077,-1.519648 0.55255,-0.565166 1.26228,-1.105239 2.09751,-1.638993 0.84787,-0.527502 1.82741,-0.967103 2.94524,-1.318738 1.12411,-0.357937 2.39891,-0.533754 3.82442,-0.533754 2.70033,0 4.70994,0.860279 6.00358,2.574635 1.29362,1.720657 1.94674,4.019036 1.94674,6.901404 V 53.10727 h 9.32565 V 32.616653 c 0,-5.814957 -1.43177,-10.298654 -4.28293,-13.463614 -2.85732,-3.158691 -7.0083,-4.741163 -12.46555,-4.741163 z m -35.48127,0.740984 v 3.780378 c -0.0749,-0.05644 -0.15684,-0.106955 -0.24492,-0.150724 -1.24342,-0.822647 -2.60611,-1.532269 -4.1258,-2.122544 -6.95813,-2.681409 -13.63364,-1.676675 -19.48649,2.951461 -7.15911,5.664282 -9.27539,15.485704 -5.27513,23.372986 0.0236,0.04986 0.05,0.100373 0.0871,0.156812 4.18869,8.113368 13.42011,12.345886 22.2873,10.060046 2.26077,-0.584007 4.39592,-1.664103 6.71948,-2.580953 v 2.537019 h 0.92939 c 0.11917,0.01481 0.25763,0.01876 0.42058,0 h 6.73207 V 38.902442 h 0.0692 V 15.152761 h -0.0146 z m 84.74064,0.01481 -15.29782,18.211079 16.67939,19.73076 H 512.035 L 495.06052,33.378748 510.42736,15.167669 Z m -96.23909,7.63607 c 3.96886,0 7.47305,1.952996 9.6082,4.948408 0.87298,1.224535 1.5261,2.631206 1.8714,4.138315 v 5.224681 l 0.0147,-0.01481 h 0.004 c -1.19943,5.20589 -5.87801,9.086724 -11.49218,9.086724 -3.17133,0 -6.0475,-1.249678 -8.17012,-3.271734 -2.22935,-2.122545 -3.61717,-5.117957 -3.61717,-8.421053 0,-6.455518 5.27507,-11.69277 11.78103,-11.69277 z m -43.45678,0.414458 c 1.58256,0 3.03321,0.288713 4.35825,0.866598 1.33135,0.577738 2.4931,1.362721 3.48534,2.354884 0.99846,0.985893 1.77092,2.135116 2.3361,3.453804 0.55256,1.318737 0.83525,2.73171 0.83525,4.251358 0,1.513396 -0.27646,2.926319 -0.83525,4.245106 -0.56518,1.318688 -1.34381,2.46791 -2.3361,3.460073 -0.9985,0.985894 -2.15403,1.770861 -3.48534,2.348615 -1.32514,0.577737 -2.77569,0.87285 -4.35825,0.87285 -1.78978,0 -3.32835,-0.257613 -4.59683,-0.759824 -1.26851,-0.502392 -2.31103,-1.086398 -3.13365,-1.739448 l 0.004,-0.0049 c -0.92318,-0.709572 -1.71447,-1.544807 -2.37382,-2.505608 V 28.073785 c 0.1691,-0.201108 0.46489,-0.571435 0.92322,-1.098937 0.46485,-0.533804 1.09259,-1.080129 1.91532,-1.638993 0.81011,-0.552595 1.81487,-1.042465 3.01435,-1.475764 1.19321,-0.427178 2.66267,-0.640528 4.2452,-0.640528 z"
     style="fill:#ff7117;fill-opacity:1;fill-rule:nonzero;stroke:none;stroke-width:6.27976"
     id="path1858" />
  <path
     d="m 116.16964,203.97808 c -6.19445,0 -10.72071,4.64941 -10.72071,12.28116 0,7.55174 4.38228,12.25115 10.88169,12.25115 5.79342,0 9.98073,-3.78435 9.98073,-9.82891 v -2.7413 h -9.43668 v 3.01329 h 5.8594 c -0.08,3.8164 -2.60216,6.22162 -6.38941,6.22162 -4.22028,0 -7.26951,-3.1763 -7.26951,-8.93186 0,-5.77257 3.09726,-8.92985 7.12549,-8.92985 3.1452,0 5.28137,1.74814 6.14741,4.53846 h 3.75428 c -0.80208,-4.64946 -4.78135,-7.87376 -9.93269,-7.87376 m 22.5645,6.02954 c -2.10212,0 -3.88523,1.18504 -4.54227,3.1413 h -0.19217 v -2.88526 h -3.41823 v 17.92472 h 3.52924 v -10.88507 c 0,-2.35717 1.79713,-4.02434 4.26832,-4.02434 0.73805,0 1.58915,0.12803 1.84612,0.19217 v -3.36843 c -0.36926,-0.0499 -1.04208,-0.0941 -1.49114,-0.0941 z m 11.47383,0.0283 c -5.05535,0 -8.37761,3.70434 -8.37761,9.28388 0,5.5315 3.32226,9.23486 8.37761,9.23486 5.05536,0 8.39259,-3.70336 8.39259,-9.23486 0,-5.57954 -3.33723,-9.28388 -8.39259,-9.28388 m 40.98682,0 c -3.35422,0 -4.55833,2.03717 -5.18436,3.14328 h -0.28918 v -2.91852 h -3.43416 v 24.62737 h 3.53123 v -9.50691 h 0.19215 c 0.62608,1.13804 1.92613,3.15727 5.18437,3.15727 4.36528,0 7.49453,-3.47732 7.49453,-9.26487 0,-5.83656 -3.19424,-9.23686 -7.49453,-9.23686 z m -28.679,0.22373 v 11.38511 c 0,4.42442 2.45516,6.76564 6.11447,6.76564 2.47115,0 4.39727,-1.10513 5.52034,-3.70232 l 0.0147,3.47731 h 3.38823 v -17.9249 h -3.54926 v 10.61498 c 0,2.83832 -1.77914,4.45744 -4.17026,4.45744 -2.34321,0 -3.7883,-1.53909 -3.7883,-4.12137 v -10.95105 z m -12.30782,2.75827 c 3.27421,0 4.81333,2.87026 4.81333,6.3016 0,3.39931 -1.53912,6.25261 -4.81333,6.25261 -3.24124,0 -4.78435,-2.8533 -4.78435,-6.25261 0,-3.44732 1.54311,-6.3016 4.78435,-6.3016 m 40.20073,0.0188 c 3.11322,0 4.67035,2.67729 4.67035,6.20458 0,3.55936 -1.60512,6.30162 -4.67035,6.30162 -2.98514,0 -4.65428,-2.56625 -4.65428,-6.30162 0,-3.72037 1.62114,-6.20458 4.65428,-6.20458"
     style="fill:#0056c7;fill-opacity:1;fill-rule:nonzero;stroke:none;stroke-width:1.0001"
     id="path492" />
  <path
     style="fill:#0056c7;fill-opacity:1;fill-rule:nonzero;stroke:none;stroke-width:0.636295"
     d="m 91.837139,199.46014 a 0.44727228,0.44726937 0 0 0 -0.447084,0.44803 v 28.71973 a 0.44746052,0.44745764 0 0 0 0.447461,0.44953 h 4.10131 c 0.0546,0 0.10881,-0.0128 0.14364,-0.0324 a 0.43484806,0.43484522 0 0 0 0.30081,-0.41715 v -28.71993 a 0.4461428,0.44613988 0 0 0 -0.44445,-0.44784 z"
     id="path591" />
  <path
     style="fill:#0056c7;fill-opacity:1;fill-rule:nonzero;stroke:none;stroke-width:0.636295"
     d="m 67.240364,199.46014 a 0.44915472,0.44915181 0 0 0 -0.447272,0.44803 v 28.71973 a 0.44896648,0.44896358 0 0 0 0.447461,0.44953 h 3.986483 a 0.44990775,0.44990479 0 0 0 0.449908,-0.44953 v -10.43666 a 0.44143667,0.44143378 0 0 1 0.445013,-0.44482 h 3.22371 c 0.141938,0 0.278605,0.0693 0.360304,0.18599 l 7.700387,10.95358 c 0.08697,0.11671 0.218743,0.19144 0.365573,0.19144 h 4.588495 c 0.360489,0 0.571326,-0.40755 0.36256,-0.70591 L 81.47552,218.05665 c -0.178835,-0.25357 -0.04763,-0.61142 0.255449,-0.69086 1.16336,-0.30571 2.194948,-0.76051 3.062385,-1.35179 0.870073,-0.5941 1.603102,-1.29512 2.179888,-2.07822 0.576597,-0.77764 1.008998,-1.65768 1.282331,-2.6021 a 10.673544,10.673474 0 0 0 0.419788,-2.94792 c 0,-1.30265 -0.220812,-2.51306 -0.645682,-3.60921 -0.427696,-1.07864 -1.068673,-2.02043 -1.911261,-2.796 -0.852754,-0.78291 -1.938935,-1.40656 -3.223712,-1.84894 -1.302662,-0.44501 -2.82877,-0.67147 -4.541432,-0.67147 z m 4.881781,4.33716 h 6.275554 a 8.8475577,8.8475001 0 0 1 1.088627,0.0676 c 1.125899,0.1713 2.053198,0.57867 2.761567,1.21757 0.976996,0.8823 1.473965,1.9792 1.473965,3.26171 0,0.62385 -0.104099,1.24487 -0.307971,1.83915 a 4.2920068,4.2919788 0 0 1 -0.989421,1.61797 c -0.447271,0.46233 -1.026504,0.83994 -1.714919,1.12325 -0.688414,0.28331 -1.518768,0.42732 -2.470726,0.42732 h -6.116676 c -0.248484,0 -0.444825,-0.20142 -0.444825,-0.44991 v -8.65925 a 0.44143667,0.44143378 0 0 1 0.444825,-0.4452 z"
     id="path589" />
  <path
     style="fill:#0056c7;fill-opacity:1;fill-rule:nonzero;stroke:none;stroke-width:0.636295"
     d="m 43.935896,199.46014 a 0.44877823,0.44877537 0 0 0 -0.447083,0.44803 v 28.71973 a 0.44877823,0.44877537 0 0 0 0.447083,0.44953 h 11.311697 c 1.710026,0 3.218629,-0.23587 4.488724,-0.6933 1.255224,-0.45744 2.309024,-1.09107 3.129212,-1.88395 0.822634,-0.79289 1.439328,-1.72753 1.834645,-2.78151 0.400022,-1.05869 0.603704,-2.21715 0.603704,-3.43509 0,-1.62549 -0.374986,-3.08909 -1.115734,-4.35203 -0.748089,-1.27253 -1.625879,-2.26383 -2.617559,-2.95224 -0.228719,-0.15907 -0.255826,-0.48755 -0.05949,-0.68389 0.193894,-0.19389 0.429955,-0.44991 0.695947,-0.76051 0.258462,-0.29554 0.504687,-0.65133 0.736041,-1.06358 0.233425,-0.40529 0.430142,-0.87026 0.594293,-1.37494 0.159067,-0.48944 0.237755,-1.02349 0.237755,-1.58276 0,-1.12853 -0.193518,-2.19494 -0.57641,-3.17193 -0.380257,-0.96193 -0.971725,-1.81712 -1.759723,-2.53546 -0.795339,-0.72569 -1.804526,-1.30454 -3.00497,-1.71736 -1.210421,-0.41508 -2.649561,-0.62874 -4.277699,-0.62874 z m 4.772223,4.33716 h 5.276721 c 1.026505,0 1.901283,0.1297 2.6025,0.38816 h 0.0019 c 0.469673,0.18147 0.867438,0.41979 1.170511,0.71326 0.783105,0.75053 1.180679,1.66032 1.180679,2.70922 0,0.90734 -0.161703,1.67745 -0.484733,2.29131 -0.308158,0.58657 -0.628553,1.04627 -0.946688,1.36703 l -0.131582,0.13196 h -8.670044 a 0.44915472,0.44915181 0 0 1 -0.447084,-0.4499 l 7.54e-4,-6.70584 a 0.44802527,0.44802237 0 0 1 0.447085,-0.44501 z m 0,11.98554 h 6.840104 c 1.662776,0 2.918187,0.44746 3.745904,1.33484 0.775575,0.87233 1.168067,1.90636 1.168067,3.07705 0,1.21794 -0.449908,2.27456 -1.327324,3.13954 -0.882307,0.86217 -2.308834,1.30209 -4.244944,1.30209 h -6.181807 a 0.44915472,0.44915181 0 0 1 -0.44746,-0.44764 v -7.95861 c 0,-0.24848 0.201423,-0.44746 0.44746,-0.44746"
     id="path587" />
  <path
     style="fill:#0056c7;fill-opacity:1;fill-rule:nonzero;stroke:none;stroke-width:0.636295"
     d="m 5.3131049,196.27805 c -2.9355052,0 -5.31173378,2.37603 -5.31173378,5.31396 v 25.47892 c 0,2.93812 2.37622858,5.31678 5.31173378,5.31678 H 30.794637 c 2.935319,0 5.316628,-2.37866 5.316628,-5.31659 v -25.47911 c 0,-2.93793 -2.381309,-5.31396 -5.316628,-5.31396 z m 0,4.14176 h 3.4546899 v 0.0179 a 4.1978839,4.1978566 0 0 1 2.8980462,1.04626 c 0.06456,0.0572 0.129512,0.12198 0.189186,0.18166 1.625505,1.62304 1.603102,4.07587 -0.04479,5.97978 l -5.4408722,5.97808 c -0.365199,0.40021 -0.365199,1.01408 0,1.41184 l 5.4035972,5.93535 0.05213,0.0619 c 1.662778,1.81186 1.677838,4.31702 0.02992,5.96002 -0.05968,0.0646 -0.124619,0.12236 -0.189186,0.1794 -0.797784,0.71081 -1.8242912,1.0809 -2.8980472,1.05115 v 0.0179 H 5.3130994 a 1.1699483,1.1699407 0 0 1 -1.1712651,-1.17086 v -25.47986 a 1.1695718,1.1695643 0 0 1 1.1712651,-1.17032 z m 10.7819751,10e-4 h 3.818001 v 0.0179 a 4.2016488,4.2016214 0 0 1 2.900683,1.04664 c 0.06456,0.0572 0.129137,0.1216 0.188811,0.18128 1.625504,1.62304 1.603102,4.07643 -0.04481,5.98015 l -5.378562,6.03739 a 1.0551183,1.0551115 0 0 0 0.01449,1.41672 l 12.286808,13.1408 H 16.095254 c 1.851589,-3.1292 1.434058,-7.1533 -1.255225,-10.05396 v -7.6e-4 l -3.510031,-3.85487 3.470312,-3.8176 0.07417,-0.0774 c 2.647115,-2.99271 3.047325,-6.93173 1.220397,-10.01631 z m 11.145287,7.4e-4 h 3.554083 a 1.1708896,1.170882 0 0 1 1.171264,1.17032 v 22.74749 l -9.427917,-10.07599 3.407624,-3.74814 0.0719,-0.0772 c 2.647113,-2.99234 3.052408,-6.93192 1.223035,-10.0165"
     id="path326" />
</svg>
